<?xml version="1.0" encoding="utf-8"?>
<!-- Generator: Adobe Illustrator 23.0.0, SVG Export Plug-In . SVG Version: 6.00 Build 0)  -->
<svg version="1.1" id="Ebene_1" xmlns="http://www.w3.org/2000/svg" xmlns:xlink="http://www.w3.org/1999/xlink" x="0px" y="0px"
	 viewBox="0 0 2500 1240" style="enable-background:new 0 0 2500 1240;" xml:space="preserve">
<style type="text/css">
	.st0{fill:#EF809F;}
	.st1{fill:#FFFFFF;}
</style>
<path class="st0" d="M2108.4,52"/>
<g>
	<path class="st1" d="M197.6,934.5c118.6,0,209.1-79.5,209.1-195.9c0-107.9-76.7-154.9-170.9-182.7c-59.9-17.4-97.5-30.6-97.5-73.1
		c0-35.4,25.9-63.5,66.9-63.5c34.9,0,60.7,20.2,79.5,50.9l98.4-62.1c-30.6-67.7-99.8-102.6-174.3-102.6
		c-118.6,0-193.6,85.2-193.6,184.1c0,78.7,47.5,139.4,163.9,173.7c63.5,18,104,30.6,104,80.9c0,47.5-34.3,76.7-83.8,76.7
		c-52.8,0-93.3-34.3-117.8-65.5L0,837C43.6,897.1,114.7,934.5,197.6,934.5 M676.5,934.5c-125.4,0-227.1-100.3-227.1-222.3
		c0-122,101.7-222.3,227.1-222.3s227.1,100.3,227.1,222.3C903.9,834.2,802.1,934.5,676.5,934.5 M676.5,823.2
		c60.7,0,108.8-48.1,108.8-110.7c0-62.7-48.1-110.7-108.8-110.7c-61.3,0-108.8,48.1-108.8,110.7
		C567.7,775.7,615.8,823.2,676.5,823.2 M1197.3,425.2V313.6h-17.4c-144.2,0-215.3,96.1-215.3,209.1v400.8h118.6V747.9
		c0-58.5,45.3-100.3,110.7-101.7v-113c-46.7,0-84.3,14.1-110.7,41.9v-45.3C1082.9,455.9,1131,422.4,1197.3,425.2 M1455.9,934.5
		c-125.4,0-227.1-100.3-227.1-222.3c0-122,101.7-222.3,227.1-222.3c125.4,0,227.1,100.3,227.1,222.3
		C1683,834.2,1581.2,934.5,1455.9,934.5 M1455.9,823.2c61.3,0,108.8-48.1,108.8-110.7s-48.1-110.7-108.8-110.7
		c-60.7,0-108.8,48.1-108.8,110.7C1347.1,775.7,1395.2,823.2,1455.9,823.2 M1862.3,550V502h-115v421.6h118.6V731.3
		c0-69.7,41-108.8,112.1-108.8V495.8C1924.1,493.5,1885.9,511.5,1862.3,550 M2164.7,708V604.8c26.4,27.8,63.5,41.9,110.7,41.9V534.6
		c-64.1-1.4-110.7-44.7-110.7-101.7v-66.3h-118.6V715c0,113,70.3,209.1,215.3,209.1h17.4V812.5
		C2212.8,814.8,2164.7,781.9,2164.7,708 M2420.5,930.6c43.3,0,79.5-35.4,79.5-79.5c0-43.3-35.4-79.5-79.5-79.5
		c-44.1,0-79.5,35.4-79.5,79.5C2340.9,895.2,2376.6,930.6,2420.5,930.6"/>
</g>
</svg>
